<svg xmlns="http://www.w3.org/2000/svg" version="1.1" xmlns:xlink="http://www.w3.org/1999/xlink" xmlns:svgjs="http://svgjs.com/svgjs" width="1440" height="560" preserveAspectRatio="none" viewBox="0 0 1440 560"><g mask="url(&quot;#SvgjsMask1000&quot;)" fill="none"><rect width="1440" height="560" x="0" y="0" fill="#0e2a47"></rect><path d="M0,351.634C75.847,348.963,156.964,384.394,223.023,347.03C289.707,309.312,317.106,228.833,343.963,157.083C369.332,89.309,374.92,18.711,372.995,-53.629C370.844,-134.472,381.666,-223.866,332.128,-287.79C282.09,-352.36,192.982,-367.432,113.912,-387.95C37.054,-407.894,-40.618,-418.321,-118.866,-404.819C-204.37,-390.064,-296.833,-372.009,-354.447,-307.13C-412.242,-242.048,-407.197,-146.354,-424.195,-60.99C-442.253,29.698,-495.123,124.462,-457.178,208.786C-419.221,293.135,-321.64,335.519,-233.353,363.105C-157.482,386.811,-79.439,354.432,0,351.634" fill="#0b2239"></path><path d="M1440 1098.223C1542.16 1103.149 1630.413 1041.809 1725.616 1004.427 1846.286 957.0450000000001 2002.164 957.517 2073.694 849.398 2145.322 741.131 2126.145 589.454 2080.575 467.899 2038.721 356.256 1931.661 288.23 1836.424 216.49599999999998 1758.208 157.58300000000003 1669.634 124.41500000000002 1578.159 89.47399999999999 1478.328 51.341999999999985 1380.485-21.313999999999965 1276.319 2.5539999999999736 1171.259 26.626999999999953 1117.712 138.81400000000002 1039.442 212.91500000000002 951.0640000000001 296.585 824.995 350.546 786.721 466.073 746.687 586.912 756.024 735.683 832.543 837.4159999999999 907.577 937.173 1056.853 928.4639999999999 1171.554 977.71 1263.547 1017.206 1340.003 1093.4009999999998 1440 1098.223" fill="#113255"></path></g><defs><mask id="SvgjsMask1000"><rect width="1440" height="560" fill="#ffffff"></rect></mask></defs></svg>